<?xml version="1.0" encoding="UTF-8"?>
<svg width="126px" height="98px" viewBox="0 0 126 98" version="1.1" xmlns="http://www.w3.org/2000/svg" xmlns:xlink="http://www.w3.org/1999/xlink">
    <!-- Generator: Sketch 53.2 (72643) - https://sketchapp.com -->
    <title>Group</title>
    <desc>Created with Sketch.</desc>
    <g id="Page-1" stroke="none" stroke-width="1" fill="none" fill-rule="evenodd">
        <g id="Artboard" transform="translate(-336.000000, -611.000000)">
            <g id="Group" transform="translate(336.000000, 611.000000)">
                <g id="Group-9" transform="translate(48.000000, 58.000000)" fill="#1F374F">
                    <path d="M28,38 L2,38 L2,2 L19,2 L19,10 C19,10.55 19.45,11 20,11 L28,11 L28,38 Z M21,3.83 L26.17,9 L21,9 L21,3.83 Z M29.79,9.78 L20.21,0.21 C20.08,0.08 19.891,0 19.7,0 L0.73,0 C0.33,0 0,0.33 0,0.73 L0,39.27 C0,39.67 0.33,40 0.73,40 L29.27,40 C29.67,40 30,39.67 30,39.27 L30,10.3 C30,10.11 29.92,9.92 29.79,9.78 L29.79,9.78 Z" id="Fill-1"></path>
                    <path d="M5.9404,20.9995 L15.0004,20.9995 C15.5524,20.9995 16.0004,20.5515 16.0004,19.9995 C16.0004,19.4475 15.5524,18.9995 15.0004,18.9995 L5.9404,18.9995 C5.3874,18.9995 4.9404,19.4475 4.9404,19.9995 C4.9404,20.5515 5.3874,20.9995 5.9404,20.9995" id="Fill-3"></path>
                    <path d="M4.9404,26.2798 C4.9404,26.8318 5.3874,27.2798 5.9404,27.2798 L24.0594,27.2798 C24.6124,27.2798 25.0594,26.8318 25.0594,26.2798 C25.0594,25.7278 24.6124,25.2798 24.0594,25.2798 L5.9404,25.2798 C5.3874,25.2798 4.9404,25.7278 4.9404,26.2798" id="Fill-5"></path>
                    <path d="M24.0596,31.5596 L5.9406,31.5596 C5.3876,31.5596 4.9406,32.0076 4.9406,32.5596 C4.9406,33.1116 5.3876,33.5596 5.9406,33.5596 L24.0596,33.5596 C24.6126,33.5596 25.0596,33.1116 25.0596,32.5596 C25.0596,32.0076 24.6126,31.5596 24.0596,31.5596" id="Fill-7"></path>
                </g>
                <g id="Group-9-Copy" transform="translate(48.000000, 0.000000)" fill="#1F374F">
                    <path d="M28,38 L2,38 L2,2 L19,2 L19,10 C19,10.55 19.45,11 20,11 L28,11 L28,38 Z M21,3.83 L26.17,9 L21,9 L21,3.83 Z M29.79,9.78 L20.21,0.21 C20.08,0.08 19.891,0 19.7,0 L0.73,0 C0.33,0 0,0.33 0,0.73 L0,39.27 C0,39.67 0.33,40 0.73,40 L29.27,40 C29.67,40 30,39.67 30,39.27 L30,10.3 C30,10.11 29.92,9.92 29.79,9.78 L29.79,9.78 Z" id="Fill-1"></path>
                    <path d="M5.9404,20.9995 L15.0004,20.9995 C15.5524,20.9995 16.0004,20.5515 16.0004,19.9995 C16.0004,19.4475 15.5524,18.9995 15.0004,18.9995 L5.9404,18.9995 C5.3874,18.9995 4.9404,19.4475 4.9404,19.9995 C4.9404,20.5515 5.3874,20.9995 5.9404,20.9995" id="Fill-3"></path>
                    <path d="M4.9404,26.2798 C4.9404,26.8318 5.3874,27.2798 5.9404,27.2798 L24.0594,27.2798 C24.6124,27.2798 25.0594,26.8318 25.0594,26.2798 C25.0594,25.7278 24.6124,25.2798 24.0594,25.2798 L5.9404,25.2798 C5.3874,25.2798 4.9404,25.7278 4.9404,26.2798" id="Fill-5"></path>
                    <path d="M24.0596,31.5596 L5.9406,31.5596 C5.3876,31.5596 4.9406,32.0076 4.9406,32.5596 C4.9406,33.1116 5.3876,33.5596 5.9406,33.5596 L24.0596,33.5596 C24.6126,33.5596 25.0596,33.1116 25.0596,32.5596 C25.0596,32.0076 24.6126,31.5596 24.0596,31.5596" id="Fill-7"></path>
                </g>
                <g id="Group-9-Copy-2" transform="translate(96.000000, 29.000000)" fill="#1F374F">
                    <path d="M28,38 L2,38 L2,2 L19,2 L19,10 C19,10.55 19.45,11 20,11 L28,11 L28,38 Z M21,3.83 L26.17,9 L21,9 L21,3.83 Z M29.79,9.78 L20.21,0.21 C20.08,0.08 19.891,0 19.7,0 L0.73,0 C0.33,0 0,0.33 0,0.73 L0,39.27 C0,39.67 0.33,40 0.73,40 L29.27,40 C29.67,40 30,39.67 30,39.27 L30,10.3 C30,10.11 29.92,9.92 29.79,9.78 L29.79,9.78 Z" id="Fill-1"></path>
                    <path d="M5.9404,20.9995 L15.0004,20.9995 C15.5524,20.9995 16.0004,20.5515 16.0004,19.9995 C16.0004,19.4475 15.5524,18.9995 15.0004,18.9995 L5.9404,18.9995 C5.3874,18.9995 4.9404,19.4475 4.9404,19.9995 C4.9404,20.5515 5.3874,20.9995 5.9404,20.9995" id="Fill-3"></path>
                    <path d="M4.9404,26.2798 C4.9404,26.8318 5.3874,27.2798 5.9404,27.2798 L24.0594,27.2798 C24.6124,27.2798 25.0594,26.8318 25.0594,26.2798 C25.0594,25.7278 24.6124,25.2798 24.0594,25.2798 L5.9404,25.2798 C5.3874,25.2798 4.9404,25.7278 4.9404,26.2798" id="Fill-5"></path>
                    <path d="M24.0596,31.5596 L5.9406,31.5596 C5.3876,31.5596 4.9406,32.0076 4.9406,32.5596 C4.9406,33.1116 5.3876,33.5596 5.9406,33.5596 L24.0596,33.5596 C24.6126,33.5596 25.0596,33.1116 25.0596,32.5596 C25.0596,32.0076 24.6126,31.5596 24.0596,31.5596" id="Fill-7"></path>
                </g>
                <g id="Group-9-Copy-3" transform="translate(0.000000, 29.000000)" fill="#1F374F">
                    <path d="M28,38 L2,38 L2,2 L19,2 L19,10 C19,10.55 19.45,11 20,11 L28,11 L28,38 Z M21,3.83 L26.17,9 L21,9 L21,3.83 Z M29.79,9.78 L20.21,0.21 C20.08,0.08 19.891,0 19.7,0 L0.73,0 C0.33,0 0,0.33 0,0.73 L0,39.27 C0,39.67 0.33,40 0.73,40 L29.27,40 C29.67,40 30,39.67 30,39.27 L30,10.3 C30,10.11 29.92,9.92 29.79,9.78 L29.79,9.78 Z" id="Fill-1"></path>
                    <path d="M5.9404,20.9995 L15.0004,20.9995 C15.5524,20.9995 16.0004,20.5515 16.0004,19.9995 C16.0004,19.4475 15.5524,18.9995 15.0004,18.9995 L5.9404,18.9995 C5.3874,18.9995 4.9404,19.4475 4.9404,19.9995 C4.9404,20.5515 5.3874,20.9995 5.9404,20.9995" id="Fill-3"></path>
                    <path d="M4.9404,26.2798 C4.9404,26.8318 5.3874,27.2798 5.9404,27.2798 L24.0594,27.2798 C24.6124,27.2798 25.0594,26.8318 25.0594,26.2798 C25.0594,25.7278 24.6124,25.2798 24.0594,25.2798 L5.9404,25.2798 C5.3874,25.2798 4.9404,25.7278 4.9404,26.2798" id="Fill-5"></path>
                    <path d="M24.0596,31.5596 L5.9406,31.5596 C5.3876,31.5596 4.9406,32.0076 4.9406,32.5596 C4.9406,33.1116 5.3876,33.5596 5.9406,33.5596 L24.0596,33.5596 C24.6126,33.5596 25.0596,33.1116 25.0596,32.5596 C25.0596,32.0076 24.6126,31.5596 24.0596,31.5596" id="Fill-7"></path>
                </g>
                <g id="Group-8" transform="translate(61.000000, 46.000000)" stroke="#1F374F">
                    <path d="M1.66530174,8.48361862 L2.07944665,0.581263057" id="Line" stroke-linecap="square" transform="translate(2.079547, 4.617396) rotate(-3.000000) translate(-2.079547, -4.617396) "></path>
                    <polyline id="Path-4" points="0 1.9444747 1.9444747 0 3.88894939 1.9444747"></polyline>
                </g>
                <g id="Group-8-Copy" transform="translate(39.330127, 59.232051) rotate(-60.000000) translate(-39.330127, -59.232051) translate(37.330127, 54.232051)" stroke="#1F374F">
                    <path d="M1.66530174,8.48361862 L2.07944665,0.581263057" id="Line" stroke-linecap="square" transform="translate(2.079547, 4.617396) rotate(-3.000000) translate(-2.079547, -4.617396) "></path>
                    <polyline id="Path-4" points="0 1.9444747 1.9444747 0 3.88894939 1.9444747"></polyline>
                </g>
                <g id="Group-8-Copy-2" transform="translate(84.330127, 59.232051) rotate(-300.000000) translate(-84.330127, -59.232051) translate(82.330127, 54.232051)" stroke="#1F374F">
                    <path d="M1.66530174,8.48361862 L2.07944665,0.581263057" id="Line" stroke-linecap="square" transform="translate(2.079547, 4.617396) rotate(-3.000000) translate(-2.079547, -4.617396) "></path>
                    <polyline id="Path-4" points="0 1.9444747 1.9444747 0 3.88894939 1.9444747"></polyline>
                </g>
            </g>
        </g>
    </g>
</svg>