<?xml version="1.0" encoding="UTF-8"?>
<svg width="53px" height="71px" viewBox="0 0 53 71" version="1.1" xmlns="http://www.w3.org/2000/svg" xmlns:xlink="http://www.w3.org/1999/xlink">
    <!-- Generator: Sketch 53.2 (72643) - https://sketchapp.com -->
    <title>Fill 14</title>
    <desc>Created with Sketch.</desc>
    <g id="Page-1" stroke="none" stroke-width="1" fill="none" fill-rule="evenodd">
        <g id="Artboard" transform="translate(-674.000000, -157.000000)" fill="#142543">
            <path d="M696.835725,185.720868 C699.079407,185.521636 701.379623,186.276621 702.976701,187.73416 C703.966041,188.618471 705.135582,190.166888 705.135582,192.498252 L705.135582,192.508738 C705.135582,194.840102 703.966041,196.39551 702.976701,197.279821 C701.379623,198.73736 699.079407,199.478364 696.835725,199.279132 C693.005565,198.950574 688.91747,196.385024 686.327519,192.508738 C688.90687,188.625462 693.005565,186.059912 696.835725,185.720868 L696.835725,185.720868 Z M727,157 L675.663845,157 C675.147975,157 674.667438,157.234185 674.352969,157.629154 C674.038501,158.034608 673.925433,158.551913 674.049101,159.041254 L682.507959,192.498252 L674.049101,225.962241 C673.925433,226.448087 674.038501,226.965392 674.352969,227.370846 C674.667438,227.765815 675.147975,228 675.663845,228 L727,228 L727,224.710924 L677.790926,224.710924 L685.009576,196.147344 C687.995264,199.712549 692.129292,202.176734 696.538923,202.561217 C696.885192,202.592675 697.224394,202.610151 697.56713,202.610151 C700.422083,202.610151 703.167502,201.575543 705.230983,199.702063 C707.312131,197.814601 708.460472,195.263034 708.460472,192.508738 L708.460472,192.498252 C708.460472,189.733471 707.312131,187.185399 705.230983,185.297937 C702.909567,183.207749 699.754278,182.16615 696.538923,182.445774 C692.129292,182.823266 687.995264,185.297937 685.016643,188.859647 L677.790926,160.292571 L727,160.292571 L727,157 Z" id="Fill-14"></path>
        </g>
    </g>
</svg>