<svg width="53" height="71" xmlns="http://www.w3.org/2000/svg"><path d="M22.836 28.72c2.243-.198 4.544.557 6.14 2.014.99.884 2.16 2.433 2.16 4.764v.01c0 2.332-1.17 3.888-2.16 4.772-1.596 1.457-3.897 2.198-6.14 2-3.83-.33-7.919-2.895-10.508-6.771 2.579-3.884 6.678-6.45 10.508-6.788zM53 0H1.664C1.148 0 .667.234.353.63A1.643 1.643 0 0 0 .049 2.04l8.459 33.457L.049 68.962a1.638 1.638 0 0 0 .304 1.409c.314.395.795.629 1.31.629H53v-3.29H3.79l7.22-28.563c2.985 3.566 7.12 6.03 11.529 6.414.346.032.685.05 1.028.05 2.855 0 5.6-1.035 7.664-2.909 2.081-1.887 3.23-4.439 3.23-7.193v-.01c0-2.766-1.149-5.314-3.23-7.201-2.321-2.09-5.477-3.132-8.692-2.852-4.41.377-8.544 2.852-11.522 6.414L3.79 3.293H53V0z" fill="#142543" fill-rule="evenodd"/></svg>