<svg width="60" height="68" xmlns="http://www.w3.org/2000/svg" xmlns:xlink="http://www.w3.org/1999/xlink"><defs><path id="a" d="M0 0h60v67.27H0z"/></defs><g fill="none" fill-rule="evenodd"><mask id="b" fill="#fff"><use xlink:href="#a"/></mask><path d="M52.48 46.06c-3.04 0-5.52-2.42-5.52-5.41s2.48-5.42 5.52-5.42c3.05 0 5.52 2.43 5.52 5.42 0 2.99-2.47 5.41-5.52 5.41zM29.42 57.25a7.113 7.113 0 00-2.52-3.32v-.01l2.56-8.1c.18.01.36.01.54.01 4.78 0 8.78-3.24 9.87-7.61l5.11 2.11c-.02.1-.02.21-.02.32 0 2.01.8 3.81 2.1 5.14L29.42 57.25zm-7.03 8.02c-3.04 0-5.52-2.43-5.52-5.41 0-2.99 2.48-5.42 5.52-5.42 3.05 0 5.52 2.43 5.52 5.42 0 2.98-2.47 5.41-5.52 5.41zM11.04 39.89a7.432 7.432 0 003.86-5.07l4.96.49c-.01.17-.01.35-.01.52 0 4.67 3.23 8.58 7.61 9.68l-2.35 7.43a7.64 7.64 0 00-2.72-.5c-1.17 0-2.28.26-3.26.73l-8.09-13.28zm-3.51-1.15C4.48 38.74 2 36.31 2 33.32c0-2.98 2.48-5.41 5.53-5.41 3.04 0 5.52 2.43 5.52 5.41 0 2.99-2.48 5.42-5.52 5.42zM3.27 7.42C3.27 4.43 5.75 2 8.8 2c3.04 0 5.52 2.43 5.52 5.42 0 2.98-2.48 5.41-5.52 5.41-3.05 0-5.53-2.43-5.53-5.41zm19.56 21.32a9.888 9.888 0 00-2.66 4.59l-5.15-.51c-.21-3.39-2.73-6.14-6.04-6.77V14.82a7.549 7.549 0 003.39-.87l10.46 14.79zm7.17-.92c4.5 0 8.16 3.59 8.16 8.01 0 4.41-3.66 8-8.16 8-4.49 0-8.15-3.59-8.15-8 0-4.42 3.66-8.01 8.15-8.01zm22.48 5.41c-3.35 0-6.17 2.13-7.14 5.1l-5.19-2.16c.01-.11.01-.22.01-.34 0-5.54-4.54-10.01-10.16-10.01-2.07 0-3.99.61-5.6 1.66L13.99 12.77a7.264 7.264 0 002.33-5.35C16.32 3.31 12.97 0 8.8 0S1.27 3.31 1.27 7.42c0 3.48 2.42 6.39 5.71 7.19v11.33C3.07 26.21 0 29.39 0 33.32c0 4.11 3.36 7.42 7.53 7.42.54 0 1.07-.06 1.58-.17l8.34 13.7a7.29 7.29 0 00-2.58 5.59c0 4.11 3.35 7.41 7.52 7.41s7.52-3.3 7.52-7.41c0-.17-.01-.34-.03-.51l18.86-12.27c1.1.62 2.38.98 3.74.98 4.17 0 7.52-3.3 7.52-7.41s-3.35-7.42-7.52-7.42z" fill="#1F374F" mask="url(#b)"/></g></svg>