<svg width="77" height="50" xmlns="http://www.w3.org/2000/svg" xmlns:xlink="http://www.w3.org/1999/xlink"><defs><path id="a" d="M.35 0h50v50h-50z"/><path id="c" d="M.688.19h9.98v33.621H.688z"/><path id="e" d="M0 .19h9.982v33.62H0z"/></defs><g fill="none" fill-rule="evenodd"><path d="M32.584 23.778a2.154 2.154 0 0 1-2.225-2.223 2.16 2.16 0 0 1 2.082-2.082 2.154 2.154 0 0 1 2.224 2.223 2.163 2.163 0 0 1-2.081 2.082m9.01-1.247a9.342 9.342 0 0 0-.005-1.848.511.511 0 0 0-.599-.447 3.249 3.249 0 0 1-3.056-5.278.511.511 0 0 0-.091-.74 9.042 9.042 0 0 0-1.597-.92.51.51 0 0 0-.686.292 3.249 3.249 0 0 1-6.096 0 .509.509 0 0 0-.685-.292 9.034 9.034 0 0 0-1.596.92.508.508 0 0 0-.09.74 3.252 3.252 0 0 1-3.058 5.278.51.51 0 0 0-.599.447 8.899 8.899 0 0 0-.003 1.848.51.51 0 0 0 .599.448 3.25 3.25 0 0 1 3.044 5.297.513.513 0 0 0 .087.743 9.153 9.153 0 0 0 1.604.929.51.51 0 0 0 .688-.296 3.25 3.25 0 0 1 6.116 0c.1.28.416.418.689.296a9.181 9.181 0 0 0 1.602-.93.51.51 0 0 0 .087-.742 3.25 3.25 0 0 1 3.044-5.297.512.512 0 0 0 .6-.448m5.569 10.016a1.455 1.455 0 1 1-.096-2.908 1.455 1.455 0 0 1 .096 2.908m5.682-2.394a2.196 2.196 0 0 1-2.067-3.566.344.344 0 0 0-.06-.5 6.27 6.27 0 0 0-1.078-.623.346.346 0 0 0-.464.198 2.197 2.197 0 0 1-4.12 0 .345.345 0 0 0-.463-.198 6.167 6.167 0 0 0-1.08.623.344.344 0 0 0-.06.5 2.194 2.194 0 0 1-2.066 3.566.347.347 0 0 0-.406.303 6.373 6.373 0 0 0-.002 1.248c.02.2.207.338.406.303a2.195 2.195 0 0 1 2.057 3.58.345.345 0 0 0 .059.502c.337.244.699.455 1.083.627a.345.345 0 0 0 .466-.199 2.194 2.194 0 0 1 4.133 0 .343.343 0 0 0 .464.2 6.14 6.14 0 0 0 1.084-.628.346.346 0 0 0 .059-.502 2.197 2.197 0 0 1 2.057-3.58.345.345 0 0 0 .405-.303 6.178 6.178 0 0 0-.003-1.248.345.345 0 0 0-.404-.303" fill="#1F374F"/><g transform="translate(13)"><mask id="b" fill="#fff"><use xlink:href="#a"/></mask><path d="M48.35 41.444A6.563 6.563 0 0 1 41.792 48H8.905a6.563 6.563 0 0 1-6.556-6.556V8.555A6.563 6.563 0 0 1 8.905 2h32.888a6.563 6.563 0 0 1 6.556 6.555v32.89zM41.792 0H8.905C4.2 0 .35 3.85.35 8.555v32.89C.35 46.15 4.2 50 8.905 50h32.888c4.706 0 8.556-3.85 8.556-8.556V8.555C50.35 3.85 46.5 0 41.793 0z" fill="#1F374F" mask="url(#b)"/></g><g transform="translate(66 8)"><mask id="d" fill="#fff"><use xlink:href="#c"/></mask><path d="M8.668 27.181a4.635 4.635 0 0 1-4.63 4.63h-1.35V2.191h1.35a4.635 4.635 0 0 1 4.63 4.63v20.36zM4.038.191H.688v33.62h3.35a6.63 6.63 0 0 0 6.63-6.63V6.821A6.63 6.63 0 0 0 4.038.19z" fill="#1F374F" mask="url(#d)"/></g><g transform="translate(0 8)"><mask id="f" fill="#fff"><use xlink:href="#e"/></mask><path d="M7.982 31.81H6.63A4.635 4.635 0 0 1 2 27.18V6.82a4.635 4.635 0 0 1 4.63-4.63h1.352v29.62zM0 6.82v20.36a6.63 6.63 0 0 0 6.63 6.63h3.352V.19H6.63A6.63 6.63 0 0 0 0 6.82z" fill="#1F374F" mask="url(#f)"/></g></g></svg>