<svg width="126" height="98" xmlns="http://www.w3.org/2000/svg"><g fill="none" fill-rule="evenodd"><g fill="#1F374F"><path d="M76 96H50V60h17v8c0 .55.45 1 1 1h8v27zm-7-34.17L74.17 67H69v-5.17zm8.79 5.95l-9.58-9.57a.734.734 0 0 0-.51-.21H48.73c-.4 0-.73.33-.73.73v38.54c0 .4.33.73.73.73h28.54c.4 0 .73-.33.73-.73V68.3c0-.19-.08-.38-.21-.52z"/><path d="M53.94 79H63a1 1 0 0 0 0-2h-9.06a1 1 0 1 0 0 2m-1 5.28a1 1 0 0 0 1 1h18.12a1 1 0 1 0 0-2H53.94a1 1 0 0 0-1 1m19.12 5.28H53.94a1 1 0 1 0 0 2h18.12a1 1 0 1 0 0-2"/></g><g fill="#1F374F"><path d="M76 38H50V2h17v8c0 .55.45 1 1 1h8v27zM69 3.83L74.17 9H69V3.83zm8.79 5.95L68.21.21A.734.734 0 0 0 67.7 0H48.73c-.4 0-.73.33-.73.73v38.54c0 .4.33.73.73.73h28.54c.4 0 .73-.33.73-.73V10.3c0-.19-.08-.38-.21-.52z"/><path d="M53.94 21H63a1 1 0 0 0 0-2h-9.06a1 1 0 1 0 0 2m-1 5.28a1 1 0 0 0 1 1h18.12a1 1 0 1 0 0-2H53.94a1 1 0 0 0-1 1m19.12 5.28H53.94a1 1 0 1 0 0 2h18.12a1 1 0 1 0 0-2"/></g><g fill="#1F374F"><path d="M124 67H98V31h17v8c0 .55.45 1 1 1h8v27zm-7-34.17l5.17 5.17H117v-5.17zm8.79 5.95l-9.58-9.57a.734.734 0 0 0-.51-.21H96.73c-.4 0-.73.33-.73.73v38.54c0 .4.33.73.73.73h28.54c.4 0 .73-.33.73-.73V39.3c0-.19-.08-.38-.21-.52z"/><path d="M101.94 50H111a1 1 0 0 0 0-2h-9.06a1 1 0 1 0 0 2m-1 5.28a1 1 0 0 0 1 1h18.12a1 1 0 1 0 0-2h-18.12a1 1 0 0 0-1 1m19.12 5.28h-18.12a1 1 0 1 0 0 2h18.12a1 1 0 1 0 0-2"/></g><g fill="#1F374F"><path d="M28 67H2V31h17v8c0 .55.45 1 1 1h8v27zm-7-34.17L26.17 38H21v-5.17zm8.79 5.95l-9.58-9.57a.734.734 0 0 0-.51-.21H.73c-.4 0-.73.33-.73.73v38.54c0 .4.33.73.73.73h28.54c.4 0 .73-.33.73-.73V39.3c0-.19-.08-.38-.21-.52z"/><path d="M5.94 50H15a1 1 0 0 0 0-2H5.94a1 1 0 1 0 0 2m-1 5.28a1 1 0 0 0 1 1h18.12a1 1 0 1 0 0-2H5.94a1 1 0 0 0-1 1m19.12 5.28H5.94a1 1 0 1 0 0 2h18.12a1 1 0 1 0 0-2"/></g><g stroke="#1F374F"><path d="M62.868 54.5v-7.913" stroke-linecap="square"/><path d="M61 47.944L62.944 46l1.945 1.944"/></g><g stroke="#1F374F"><path d="M42.295 61.096l-6.853-3.956" stroke-linecap="square"/><path d="M35.684 59.436l-.712-2.656 2.656-.712"/></g><g stroke="#1F374F"><path d="M81.233 60.868l6.853-3.957" stroke-linecap="square"/><path d="M85.976 55.972l2.656.712-.711 2.656"/></g></g></svg>